<svg version="1.1" id="Layer_1" xmlns="http://www.w3.org/2000/svg" xmlns:xlink="http://www.w3.org/1999/xlink" x="0px" y="0px"
	 width="100%" viewBox="0 0 432 416" enable-background="new 0 0 432 416" xml:space="preserve">
<path fill="#000000" opacity="1.000000" stroke="none" 
	d="
M282.115540,324.715637 
	C286.259491,324.744232 289.925415,324.729736 293.589142,324.812225 
	C297.830475,324.907654 300.044312,327.152344 300.106506,331.378479 
	C300.180023,336.375519 300.330475,341.382324 300.105347,346.369446 
	C299.923889,350.390350 301.233093,352.149567 305.499023,351.924255 
	C310.981598,351.634674 316.493927,351.735809 321.987793,351.881409 
	C327.312744,352.022461 329.175751,353.959106 329.273438,359.208099 
	C329.357147,363.704651 329.460205,368.213684 329.220978,372.699402 
	C329.015991,376.542572 330.359619,378.120667 334.338074,377.992767 
	C341.161621,377.773376 347.997498,377.914154 354.828033,377.944275 
	C361.501495,377.973694 364.313293,379.877869 364.205627,384.214081 
	C364.103241,388.338257 361.447235,390.079102 354.987518,390.083984 
	C295.510559,390.129211 236.033615,390.167847 176.556671,390.185089 
	C142.403229,390.195007 108.249794,390.162811 74.096359,390.145020 
	C72.430740,390.144135 70.762726,390.147461 69.100029,390.064484 
	C65.434319,389.881622 63.011780,388.163483 62.930534,384.292084 
	C62.850445,380.475647 65.110191,378.278137 68.761894,378.163239 
	C76.583481,377.917145 84.420822,377.811676 92.241211,378.028076 
	C96.628792,378.149475 98.291824,376.558136 97.929779,372.207642 
	C97.654434,368.898926 97.870132,365.548126 97.890778,362.216217 
	C97.943993,353.624969 99.631958,351.912506 108.065910,351.864899 
	C113.230431,351.835754 118.397156,351.708771 123.558678,351.820618 
	C126.750000,351.889740 128.118027,350.598145 128.043610,347.402008 
	C127.931175,342.573120 127.896530,337.737549 128.015762,332.909424 
	C128.169220,326.694824 130.000793,324.907776 136.169922,324.805084 
	C141.333267,324.719055 146.500656,324.678558 151.662704,324.787231 
	C154.637024,324.849823 155.906982,323.663849 155.830048,320.664429 
	C155.719009,316.335846 155.780365,312.001556 155.830582,307.670410 
	C155.920273,299.934998 157.211670,298.596344 164.844269,298.589294 
	C192.989426,298.563385 221.134674,298.606995 249.279770,298.554565 
	C254.938629,298.544006 260.597595,298.071198 266.255280,298.095093 
	C272.152802,298.119965 274.024109,300.096344 274.140625,305.933258 
	C274.217102,309.763611 274.152649,313.596680 274.157623,317.428528 
	C274.167053,324.676971 274.168945,324.676971 282.115540,324.715637 
M237.500000,377.907684 
	C261.645355,377.893860 285.790741,377.895691 309.936005,377.836151 
	C311.835236,377.831451 314.545715,378.656372 315.329712,376.423645 
	C316.543549,372.966919 316.565247,369.046051 315.283173,365.657806 
	C314.292236,363.038971 311.150787,364.198669 308.962677,364.196625 
	C263.169769,364.154205 217.376846,364.194611 171.583923,364.194855 
	C153.433350,364.194946 135.282761,364.117157 117.132225,364.136780 
	C115.237617,364.138824 112.546631,363.301788 111.769264,365.593628 
	C110.592590,369.062683 110.502579,372.979034 111.780388,376.371094 
	C112.758621,378.967987 115.913437,377.858917 118.104607,377.862396 
	C157.569656,377.924591 197.034851,377.907562 237.500000,377.907684 
M144.170242,336.416870 
	C141.511658,338.120392 140.086655,344.910919 141.450394,349.324280 
	C142.545410,352.868042 145.532745,351.583374 147.766449,351.587585 
	C190.883148,351.669098 234.000015,351.669739 277.116852,351.659668 
	C288.273926,351.657074 287.120026,352.924316 287.224731,341.515015 
	C287.263763,337.268677 285.972931,336.182404 281.887634,336.195648 
	C236.274200,336.343658 190.660263,336.326599 144.170242,336.416870 
M261.639893,315.845276 
	C262.250244,311.690674 260.501312,310.375916 256.331238,310.525177 
	C229.209473,311.496460 202.073593,310.999542 174.945862,310.789673 
	C170.431824,310.754730 168.308472,311.555756 168.911285,316.314941 
	C169.014069,317.126556 168.927597,317.991455 168.771759,318.801605 
	C167.876144,323.457794 169.771240,324.739197 174.411652,324.701843 
	C200.879120,324.488892 227.349106,324.597229 253.818237,324.578583 
	C261.601013,324.573090 261.600983,324.546478 261.639893,315.845276 
z"/>
<path fill="#000000" opacity="1.000000" stroke="none" 
	d="
M100.208099,284.059082 
	C78.022568,282.212646 59.591717,273.790863 45.389042,256.905914 
	C42.479805,253.447250 39.978386,249.728119 38.182728,245.555786 
	C36.609188,241.899521 37.524246,239.084641 41.478340,238.311630 
	C45.019886,237.619263 46.267101,235.348282 47.495590,232.467148 
	C64.088692,193.551727 80.939392,154.749847 99.153397,116.556526 
	C99.726311,115.355164 100.294594,114.134865 101.024788,113.028862 
	C102.361847,111.003677 103.995064,110.907104 105.413536,112.868988 
	C106.478279,114.341652 107.362564,115.979202 108.111923,117.640457 
	C125.505814,156.201050 142.915436,194.755524 158.966431,233.902679 
	C159.854340,236.068237 160.916672,237.398697 163.355942,238.064529 
	C169.145599,239.644897 170.324509,242.576233 167.279083,248.136490 
	C160.318710,260.844543 149.757385,269.790924 136.931290,276.179657 
	C125.527153,281.860107 113.369019,284.248383 100.208099,284.059082 
M68.570541,237.701035 
	C76.392281,237.678848 84.215012,237.573822 92.035347,237.668091 
	C96.179497,237.718033 97.921898,236.222351 97.888947,231.785950 
	C97.697372,205.991852 97.760384,180.195923 97.684441,154.400772 
	C97.680695,153.125854 98.213860,151.578857 96.590057,150.060410 
	C83.149826,179.009750 70.437439,207.760162 57.998573,237.700058 
	C62.010315,237.700058 64.807594,237.700058 68.570541,237.701035 
M109.405060,233.377533 
	C109.135834,236.638916 110.697632,237.721344 113.869194,237.681229 
	C123.852394,237.554871 133.838272,237.647156 143.823059,237.627731 
	C144.950333,237.625549 146.208023,237.810791 147.316467,235.784058 
	C135.865143,207.731461 123.308128,179.609100 109.392860,151.914200 
	C109.392860,178.797424 109.392860,205.680649 109.405060,233.377533 
z"/>
<path fill="#000000" opacity="1.000000" stroke="none" 
	d="
M260.725464,239.901306 
	C269.600067,238.218323 271.100800,230.883362 273.859955,224.458450 
	C289.035614,189.120728 304.556915,153.934540 320.772827,119.060585 
	C322.098328,116.210030 322.604034,111.541092 326.432159,111.609032 
	C330.319916,111.678032 330.504547,116.404465 331.755402,119.303337 
	C348.308563,157.665039 366.299957,195.396133 382.087250,234.091843 
	C382.911316,236.111694 384.114044,237.227997 386.295013,237.842392 
	C392.165131,239.496124 393.174957,241.834076 390.315674,247.320602 
	C385.603882,256.361755 378.623047,263.427887 370.444916,269.389923 
	C338.046906,293.008820 291.544708,287.011383 267.208862,255.983353 
	C264.860107,252.988724 262.952515,249.629120 261.023468,246.331665 
	C259.931061,244.464371 259.089081,242.389008 260.725464,239.901306 
M368.545349,237.627701 
	C372.846191,235.238861 369.190643,232.563568 368.352692,230.634354 
	C358.864594,208.789444 349.173523,187.031311 339.351135,165.334000 
	C337.083130,160.324005 335.216614,155.048050 331.606079,149.783905 
	C331.412842,151.288834 331.262390,151.916809 331.261597,152.544998 
	C331.227722,179.205872 331.256683,205.866989 331.133392,232.527405 
	C331.114197,236.674652 333.236877,237.628830 336.742096,237.620468 
	C347.073242,237.595825 357.404510,237.650879 368.545349,237.627701 
M318.321350,236.932434 
	C320.315704,235.244614 319.623505,232.923874 319.628235,230.848068 
	C319.683807,206.367950 319.686676,181.887711 319.660950,157.407547 
	C319.659271,155.817245 320.081909,154.133865 318.788757,151.934967 
	C305.933655,180.406006 293.050751,208.300400 281.106903,237.303299 
	C294.005920,237.303299 305.784851,237.303299 318.321350,236.932434 
z"/>
<path fill="#000000" opacity="1.000000" stroke="none" 
	d="
M217.640030,125.999512 
	C217.625610,102.166344 217.632599,78.833115 217.560013,55.500122 
	C217.552231,53.000263 218.220810,50.118328 215.147751,48.248158 
	C212.126648,50.090191 212.411057,53.053097 212.407654,55.776745 
	C212.371506,84.776329 212.392349,113.775978 212.384811,142.775604 
	C212.372971,188.275269 212.356949,233.774933 212.320267,279.274597 
	C212.318039,282.030548 212.865860,284.873413 209.573929,286.656403 
	C202.731567,290.362427 200.782333,289.378021 200.781158,281.739746 
	C200.772659,226.739975 200.778427,171.740189 200.769501,116.740410 
	C200.768219,108.898788 200.736832,109.102188 192.709167,108.867477 
	C160.064011,107.912994 127.412399,108.886032 94.766747,108.414589 
	C92.768730,108.385735 90.766891,108.432411 88.770416,108.523087 
	C83.699394,108.753387 79.872292,103.959015 81.142815,98.965561 
	C81.544151,97.388206 82.680229,96.881836 84.100952,96.800819 
	C85.597160,96.715508 87.098938,96.703018 88.598312,96.701645 
	C123.764725,96.669304 158.931137,96.646225 194.097549,96.612137 
	C200.714691,96.605721 200.742706,96.587433 200.744095,89.943863 
	C200.746918,76.443939 200.698975,62.944012 200.708542,49.444111 
	C200.712021,44.535873 209.123947,33.745773 213.809814,32.561245 
	C214.279678,32.442471 214.802582,32.386292 215.277451,32.457371 
	C219.763199,33.128811 229.235245,44.469990 229.228455,49.159428 
	C229.208649,62.825981 229.356445,76.496597 229.049408,90.156876 
	C228.939545,95.044022 230.165298,96.771759 235.414230,96.739044 
	C270.727722,96.518944 306.043488,96.610054 341.358063,96.730629 
	C343.917847,96.739357 347.968323,95.026390 348.141724,100.056755 
	C348.334167,105.639305 345.475739,109.083710 340.539307,108.882652 
	C316.908478,107.920197 293.272797,108.920860 269.638397,108.623779 
	C258.491516,108.483658 247.332016,108.778976 236.171509,108.475975 
	C229.681549,108.299782 229.166428,109.071640 229.161087,115.670288 
	C229.117859,169.169937 229.091553,222.669617 229.034256,276.169250 
	C229.027237,282.716827 227.861282,283.936890 221.547607,285.061218 
	C218.510315,285.602081 217.307480,284.678406 217.334488,281.456085 
	C217.504745,261.137054 217.581497,240.816956 217.609543,220.497086 
	C217.652771,189.164612 217.632019,157.832047 217.640030,125.999512 
z"/>
</svg>